<mxfile host="app.diagrams.net" modified="2023-11-11T12:14:53.654Z" agent="Mozilla/5.0 (Windows NT 10.0; Win64; x64) AppleWebKit/537.36 (KHTML, like Gecko) Chrome/119.0.0.0 Safari/537.36" etag="3wvikr6LFfEG3lQ3aOeh" version="22.1.0" type="device">
  <diagram name="第 1 页" id="7Spk7YvMHZPIaI0u9_8y">
    <mxGraphModel dx="1354" dy="1002" grid="0" gridSize="10" guides="1" tooltips="1" connect="1" arrows="1" fold="1" page="0" pageScale="1" pageWidth="827" pageHeight="1169" math="0" shadow="0">
      <root>
        <mxCell id="0" />
        <mxCell id="1" parent="0" />
        <mxCell id="wKkYoOx46OHKvGCJV50k-6" style="edgeStyle=orthogonalEdgeStyle;rounded=0;orthogonalLoop=1;jettySize=auto;html=1;entryX=0.5;entryY=0;entryDx=0;entryDy=0;" parent="1" source="wKkYoOx46OHKvGCJV50k-1" target="wKkYoOx46OHKvGCJV50k-2" edge="1">
          <mxGeometry relative="1" as="geometry" />
        </mxCell>
        <mxCell id="wKkYoOx46OHKvGCJV50k-1" value="&lt;font style=&quot;font-size: 14px;&quot;&gt;write mode&lt;/font&gt;" style="rounded=0;whiteSpace=wrap;html=1;fillColor=#fff2cc;strokeColor=#d6b656;" parent="1" vertex="1">
          <mxGeometry x="-94" y="-80" width="120" height="60" as="geometry" />
        </mxCell>
        <mxCell id="wKkYoOx46OHKvGCJV50k-7" style="edgeStyle=orthogonalEdgeStyle;rounded=0;orthogonalLoop=1;jettySize=auto;html=1;entryX=0.5;entryY=0;entryDx=0;entryDy=0;" parent="1" source="wKkYoOx46OHKvGCJV50k-2" target="wKkYoOx46OHKvGCJV50k-3" edge="1">
          <mxGeometry relative="1" as="geometry" />
        </mxCell>
        <mxCell id="wKkYoOx46OHKvGCJV50k-2" value="&lt;font style=&quot;font-size: 14px;&quot;&gt;get socket instance&lt;/font&gt;" style="rounded=0;whiteSpace=wrap;html=1;fillColor=#fff2cc;strokeColor=#d6b656;" parent="1" vertex="1">
          <mxGeometry x="-94" y="19" width="120" height="60" as="geometry" />
        </mxCell>
        <mxCell id="wKkYoOx46OHKvGCJV50k-8" style="edgeStyle=orthogonalEdgeStyle;rounded=0;orthogonalLoop=1;jettySize=auto;html=1;" parent="1" source="wKkYoOx46OHKvGCJV50k-3" target="wKkYoOx46OHKvGCJV50k-5" edge="1">
          <mxGeometry relative="1" as="geometry" />
        </mxCell>
        <mxCell id="wKkYoOx46OHKvGCJV50k-3" value="&lt;font style=&quot;font-size: 14px;&quot;&gt;get arguments&lt;/font&gt;" style="rounded=0;whiteSpace=wrap;html=1;fillColor=#fff2cc;strokeColor=#d6b656;" parent="1" vertex="1">
          <mxGeometry x="-94" y="118" width="120" height="60" as="geometry" />
        </mxCell>
        <mxCell id="wKkYoOx46OHKvGCJV50k-16" style="edgeStyle=orthogonalEdgeStyle;rounded=0;orthogonalLoop=1;jettySize=auto;html=1;entryX=0.5;entryY=0;entryDx=0;entryDy=0;" parent="1" source="wKkYoOx46OHKvGCJV50k-4" target="wKkYoOx46OHKvGCJV50k-15" edge="1">
          <mxGeometry relative="1" as="geometry" />
        </mxCell>
        <mxCell id="wKkYoOx46OHKvGCJV50k-18" style="edgeStyle=orthogonalEdgeStyle;rounded=0;orthogonalLoop=1;jettySize=auto;html=1;entryX=0.5;entryY=0;entryDx=0;entryDy=0;" parent="1" source="wKkYoOx46OHKvGCJV50k-4" target="wKkYoOx46OHKvGCJV50k-17" edge="1">
          <mxGeometry relative="1" as="geometry" />
        </mxCell>
        <mxCell id="wKkYoOx46OHKvGCJV50k-4" value="&lt;font style=&quot;font-size: 14px;&quot;&gt;binary mode enable?&lt;/font&gt;" style="rhombus;whiteSpace=wrap;html=1;fillColor=#ffe6cc;strokeColor=#d79b00;" parent="1" vertex="1">
          <mxGeometry x="98" y="-90" width="191" height="80" as="geometry" />
        </mxCell>
        <mxCell id="wKkYoOx46OHKvGCJV50k-11" style="edgeStyle=orthogonalEdgeStyle;rounded=0;orthogonalLoop=1;jettySize=auto;html=1;entryX=0;entryY=0.5;entryDx=0;entryDy=0;" parent="1" source="wKkYoOx46OHKvGCJV50k-5" target="wKkYoOx46OHKvGCJV50k-4" edge="1">
          <mxGeometry relative="1" as="geometry" />
        </mxCell>
        <mxCell id="wKkYoOx46OHKvGCJV50k-22" style="edgeStyle=orthogonalEdgeStyle;rounded=0;orthogonalLoop=1;jettySize=auto;html=1;dashed=1;" parent="1" source="wKkYoOx46OHKvGCJV50k-5" target="wKkYoOx46OHKvGCJV50k-12" edge="1">
          <mxGeometry relative="1" as="geometry" />
        </mxCell>
        <mxCell id="wKkYoOx46OHKvGCJV50k-23" value="send event" style="edgeLabel;html=1;align=center;verticalAlign=middle;resizable=0;points=[];" parent="wKkYoOx46OHKvGCJV50k-22" vertex="1" connectable="0">
          <mxGeometry x="-0.0485" y="1" relative="1" as="geometry">
            <mxPoint y="-2" as="offset" />
          </mxGeometry>
        </mxCell>
        <mxCell id="wKkYoOx46OHKvGCJV50k-5" value="&lt;font style=&quot;font-size: 14px;&quot;&gt;read data from socket fd&lt;/font&gt;" style="rounded=0;whiteSpace=wrap;html=1;fillColor=#fff2cc;strokeColor=#d6b656;" parent="1" vertex="1">
          <mxGeometry x="-94" y="217" width="120" height="60" as="geometry" />
        </mxCell>
        <mxCell id="gWhvuJTQARsYm6dF6gM4-2" style="edgeStyle=orthogonalEdgeStyle;rounded=0;orthogonalLoop=1;jettySize=auto;html=1;entryX=0.5;entryY=0;entryDx=0;entryDy=0;dashed=1;" edge="1" parent="1" source="wKkYoOx46OHKvGCJV50k-12" target="gWhvuJTQARsYm6dF6gM4-1">
          <mxGeometry relative="1" as="geometry" />
        </mxCell>
        <mxCell id="wKkYoOx46OHKvGCJV50k-12" value="&lt;font style=&quot;font-size: 14px;&quot;&gt;read data from socket fd&lt;/font&gt;" style="rounded=0;whiteSpace=wrap;html=1;fillColor=#f8cecc;strokeColor=#b85450;" parent="1" vertex="1">
          <mxGeometry x="-317" y="217" width="120" height="60" as="geometry" />
        </mxCell>
        <mxCell id="wKkYoOx46OHKvGCJV50k-20" style="edgeStyle=orthogonalEdgeStyle;rounded=0;orthogonalLoop=1;jettySize=auto;html=1;" parent="1" source="wKkYoOx46OHKvGCJV50k-15" target="wKkYoOx46OHKvGCJV50k-19" edge="1">
          <mxGeometry relative="1" as="geometry" />
        </mxCell>
        <mxCell id="wKkYoOx46OHKvGCJV50k-15" value="&lt;span style=&quot;font-size: 14px;&quot;&gt;hex string format&lt;/span&gt;" style="rounded=0;whiteSpace=wrap;html=1;fillColor=#fff2cc;strokeColor=#d6b656;" parent="1" vertex="1">
          <mxGeometry x="133.5" y="19" width="120" height="60" as="geometry" />
        </mxCell>
        <mxCell id="wKkYoOx46OHKvGCJV50k-21" style="edgeStyle=orthogonalEdgeStyle;rounded=0;orthogonalLoop=1;jettySize=auto;html=1;entryX=1;entryY=0.5;entryDx=0;entryDy=0;exitX=0.5;exitY=1;exitDx=0;exitDy=0;" parent="1" source="wKkYoOx46OHKvGCJV50k-17" target="wKkYoOx46OHKvGCJV50k-19" edge="1">
          <mxGeometry relative="1" as="geometry" />
        </mxCell>
        <mxCell id="wKkYoOx46OHKvGCJV50k-17" value="&lt;font style=&quot;font-size: 14px;&quot;&gt;bin string format&lt;/font&gt;" style="rounded=0;whiteSpace=wrap;html=1;fillColor=#d80073;fontColor=#ffffff;strokeColor=#A50040;" parent="1" vertex="1">
          <mxGeometry x="318" y="19" width="120" height="60" as="geometry" />
        </mxCell>
        <mxCell id="wKkYoOx46OHKvGCJV50k-19" value="&lt;span style=&quot;font-size: 14px;&quot;&gt;response to modem&lt;/span&gt;" style="rounded=0;whiteSpace=wrap;html=1;fillColor=#fff2cc;strokeColor=#d6b656;" parent="1" vertex="1">
          <mxGeometry x="133.5" y="118" width="120" height="60" as="geometry" />
        </mxCell>
        <mxCell id="gWhvuJTQARsYm6dF6gM4-1" value="&lt;span style=&quot;font-size: 14px;&quot;&gt;update monitor&lt;/span&gt;" style="rounded=0;whiteSpace=wrap;html=1;fillColor=#d5e8d4;strokeColor=#82b366;" vertex="1" parent="1">
          <mxGeometry x="-317" y="332" width="120" height="60" as="geometry" />
        </mxCell>
      </root>
    </mxGraphModel>
  </diagram>
</mxfile>
